# Blender v2.76 (sub 0) OBJ File: 'Arrow.blend'
# www.blender.org
mtllib Arrow.mtl
o Circle
v -1.579794 -7.011036 -0.518806
v -2.029094 -7.011036 -0.259403
v -2.029094 -7.011036 0.259403
v -1.579794 -7.011036 0.518806
v -1.130494 -7.011036 0.259403
v -1.130494 -7.011036 -0.259403
v -1.579794 6.500795 -0.518806
v -2.029094 6.500795 -0.259403
v -1.130494 6.560906 -0.259403
v -1.130494 6.560906 0.259403
v -1.579794 6.560906 0.518806
v -2.029094 6.560906 0.259403
v -2.029094 6.560906 -0.259403
v -1.579794 6.560906 -0.518806
v -2.029094 6.500795 0.259403
v -1.579794 6.500795 0.518806
v -1.130494 6.500795 0.259403
v -1.130494 6.500795 -0.259403
v -0.978400 6.612138 -0.347215
v -0.978400 6.612138 0.347215
v -1.579794 6.612138 0.694430
v -2.181188 6.612138 0.347215
v -2.181188 6.612138 -0.347215
v -1.579794 6.612138 -0.694430
v -1.563254 9.890932 -0.009549
v -1.563254 9.890932 0.009549
v -1.579794 9.890932 0.019099
v -1.596334 9.890932 0.009549
v -1.596334 9.890932 -0.009549
v -1.579794 9.890932 -0.019099
v -1.117165 -7.001335 0.034157
v -0.282437 -7.777246 0.034157
v -1.117165 -5.113585 0.034157
v -0.282437 -5.889496 0.034157
v -1.117165 -7.001335 0.034157
v -0.282437 -7.777246 0.034157
v -1.117165 -5.113585 0.034157
v -0.282437 -5.889496 0.034157
v -1.800123 -6.935633 0.415028
v -2.196354 -7.711545 1.149719
v -1.800123 -5.047884 0.415028
v -2.196354 -5.823794 1.149719
v -1.694056 -6.909926 -0.449237
v -2.125867 -7.685837 -1.163597
v -1.694056 -5.022176 -0.449237
v -2.125867 -5.798087 -1.163597
v -1.579794 -7.011036 -0.032205
v -1.607684 -7.011036 -0.016102
v -1.607684 -7.011036 0.016102
v -1.579794 -7.011036 0.032205
v -1.551904 -7.011036 0.016102
v -1.551904 -7.011036 -0.016102
vn -0.319200 0.947700 0.000000
vn 0.159600 0.947700 -0.276400
vn 0.500000 0.000000 0.866000
vn 0.319200 0.947700 0.000000
vn -0.159600 0.947700 -0.276500
vn 0.159600 0.947700 0.276500
vn 1.000000 0.000000 0.000000
vn -0.500000 0.000000 -0.866000
vn 0.500000 0.000000 -0.866000
vn -0.500000 0.000000 0.866000
vn -1.000000 0.000000 0.000000
vn -0.159600 0.947700 0.276400
vn 0.984500 -0.175600 0.000000
vn -0.492200 -0.175600 -0.852600
vn 0.492200 -0.175600 0.852600
vn -0.492200 -0.175600 0.852600
vn -0.984500 -0.175600 0.000000
vn 0.492200 -0.175600 -0.852600
vn -0.000000 -0.000000 -1.000000
vn 0.000000 0.000000 1.000000
vn -0.880200 0.000000 -0.474700
vn 0.855800 0.000000 -0.517300
vn 0.000000 1.000000 0.000000
usemtl None
s off
f 9//1 10//1 20//1 19//1
f 11//2 12//2 22//2 21//2
f 2//3 1//3 7//3 8//3
f 12//4 13//4 23//4 22//4
f 10//5 11//5 21//5 20//5
f 13//6 14//6 24//6 23//6
f 8//3 7//3 14//3 13//3
f 15//7 8//7 13//7 12//7
f 17//8 16//8 11//8 10//8
f 16//9 15//9 12//9 11//9
f 7//10 18//10 9//10 14//10
f 18//11 17//11 10//11 9//11
f 6//11 5//11 17//11 18//11
f 4//9 3//9 15//9 16//9
f 1//10 6//10 18//10 7//10
f 5//8 4//8 16//8 17//8
f 3//7 2//7 8//7 15//7
f 14//12 9//12 19//12 24//12
f 22//13 23//13 29//13 28//13
f 20//14 21//14 27//14 26//14
f 23//15 24//15 30//15 29//15
f 24//16 19//16 25//16 30//16
f 19//17 20//17 26//17 25//17
f 21//18 22//18 28//18 27//18
f 31//19 33//19 34//19 32//19
f 35//20 36//20 38//20 37//20
f 31//20 32//20 36//20 35//20
f 32//20 34//20 38//20 36//20
f 33//20 31//20 35//20 37//20
f 34//20 33//20 37//20 38//20
f 39//21 40//21 42//21 41//21
f 43//22 44//22 46//22 45//22
f 5//23 6//23 52//23 51//23
f 3//23 4//23 50//23 49//23
f 1//23 2//23 48//23 47//23
f 6//23 1//23 47//23 52//23
f 4//23 5//23 51//23 50//23
f 2//23 3//23 49//23 48//23
