# Blender v2.76 (sub 0) OBJ File: ''
# www.blender.org
mtllib TestMap.mtl
o Plane
v -1.000000 0.000000 1.000000
v 1.000000 0.000000 1.000000
v -1.000000 0.000000 -1.000000
v 1.000000 0.000000 -1.000000
v -1.000000 0.000000 -0.777778
v -1.000000 0.000000 -0.555556
v -1.000000 0.000000 -0.333333
v -1.000000 0.000000 -0.111111
v -1.000000 0.000000 0.111111
v -1.000000 0.000000 0.333333
v -1.000000 0.000000 0.555556
v -1.000000 0.000000 0.777778
v 1.000000 0.000000 0.777778
v 1.000000 0.000000 0.555556
v 1.000000 0.000000 0.333333
v 1.000000 0.000000 0.111111
v 1.000000 0.000000 -0.111111
v 1.000000 0.000000 -0.333333
v 1.000000 0.000000 -0.555556
v 1.000000 0.000000 -0.777778
v -0.777778 0.000000 1.000000
v -0.555556 0.000000 1.000000
v -0.333333 0.000000 1.000000
v -0.111111 0.000000 1.000000
v 0.111111 0.000000 1.000000
v 0.333333 0.000000 1.000000
v 0.555556 0.000000 1.000000
v 0.777778 0.000000 1.000000
v 0.777778 0.000000 -1.000000
v 0.555556 0.000000 -1.000000
v 0.333333 0.000000 -1.000000
v 0.111111 0.000000 -1.000000
v -0.111111 0.000000 -1.000000
v -0.333333 0.000000 -1.000000
v -0.555556 0.000000 -1.000000
v -0.777778 0.000000 -1.000000
v 0.777778 0.000000 0.777778
v 0.555556 0.000000 0.777778
v 0.333333 0.000000 0.777778
v 0.111111 0.000000 0.777778
v -0.111111 0.000000 0.777778
v -0.333333 0.000000 0.777778
v -0.555556 0.000000 0.777778
v -0.777778 0.000000 0.777778
v 0.777778 0.000000 0.555556
v 0.555556 0.000000 0.555556
v 0.333333 0.000000 0.555556
v 0.111111 0.000000 0.555556
v -0.111111 0.000000 0.555556
v -0.333333 0.000000 0.555556
v -0.555556 0.000000 0.555556
v -0.777778 0.000000 0.555556
v 0.777778 0.000000 0.333333
v 0.555556 0.000000 0.333333
v 0.333333 0.000000 0.333333
v 0.111111 0.000000 0.333333
v -0.111111 0.000000 0.333333
v -0.333333 0.000000 0.333333
v -0.555556 0.000000 0.333333
v -0.777778 0.000000 0.333333
v 0.777778 0.000000 0.111111
v 0.555556 0.000000 0.111111
v 0.333333 0.000000 0.111111
v 0.111111 0.000000 0.111111
v -0.111111 0.000000 0.111111
v -0.333333 0.000000 0.111111
v -0.555556 0.000000 0.111111
v -0.777778 0.000000 0.111111
v 0.777778 0.000000 -0.111111
v 0.555556 0.000000 -0.111111
v 0.333333 0.000000 -0.111111
v 0.111111 0.000000 -0.111111
v -0.111111 0.000000 -0.111111
v -0.333333 0.000000 -0.111111
v -0.555556 0.000000 -0.111111
v -0.777778 0.000000 -0.111111
v 0.777778 0.000000 -0.333333
v 0.555556 0.000000 -0.333333
v 0.333333 0.000000 -0.333333
v 0.111111 0.000000 -0.333333
v -0.111111 0.000000 -0.333333
v -0.333333 0.000000 -0.333333
v -0.555556 0.000000 -0.333333
v -0.777778 0.000000 -0.333333
v 0.777778 0.000000 -0.555556
v 0.555556 0.000000 -0.555556
v 0.333333 0.000000 -0.555556
v 0.111111 0.000000 -0.555556
v -0.111111 0.000000 -0.555556
v -0.333333 0.000000 -0.555556
v -0.555556 0.000000 -0.555556
v -0.777778 0.000000 -0.555556
v 0.777778 0.000000 -0.777778
v 0.555556 0.000000 -0.777778
v 0.333333 0.000000 -0.777778
v 0.111111 0.000000 -0.777778
v -0.111111 0.000000 -0.777778
v -0.333333 0.000000 -0.777778
v -0.555556 0.000000 -0.777778
v -0.777778 0.000000 -0.777778
v -1.000000 -0.086093 -0.533182
v 1.000000 0.000000 -0.533182
v -0.777778 -0.086093 -0.533182
v -0.555556 -0.086093 -0.533182
v -0.333333 -0.086093 -0.533182
v -0.111111 -0.086093 -0.533182
v 0.111111 -0.086093 -0.533182
v 0.333333 -0.086093 -0.533182
v 0.555556 -0.086093 -0.533182
v 0.777778 0.000000 -0.533182
v -1.000000 -0.086093 -0.360387
v 1.000000 0.000000 -0.360387
v -0.777778 -0.086093 -0.360387
v -0.555556 -0.086093 -0.360387
v -0.333333 -0.086093 -0.360387
v -0.111111 -0.086093 -0.360387
v 0.111111 -0.086093 -0.360387
v 0.333333 -0.086093 -0.360387
v 0.555556 -0.086093 -0.360387
v 0.777778 0.000000 -0.360387
v 0.766859 -0.086093 1.000000
v 0.766859 0.000000 -1.000000
v 0.766859 -0.086093 0.777778
v 0.766859 -0.086093 0.555556
v 0.766859 -0.086093 0.333333
v 0.766859 -0.086093 0.111111
v 0.766859 -0.086093 -0.111111
v 0.766859 -0.086093 -0.333333
v 0.766859 0.000000 -0.555556
v 0.766859 0.000000 -0.777778
v 0.766859 -0.086093 -0.533182
v 0.766859 -0.086093 -0.360387
v 0.575544 0.000000 -1.000000
v 0.575544 -0.086093 0.777778
v 0.575544 -0.086093 0.555556
v 0.575544 -0.086093 0.333333
v 0.575544 -0.086093 0.111111
v 0.575544 -0.086093 -0.111111
v 0.575544 -0.086093 -0.333333
v 0.575544 0.000000 -0.555556
v 0.575544 0.000000 -0.777778
v 0.575544 -0.086093 -0.533182
v 0.575544 -0.086093 -0.360387
v 0.575544 -0.086093 1.000000
v 1.175385 0.000000 1.000000
v 1.175385 0.000000 -1.000000
v 1.175385 0.000000 0.777778
v 1.175385 0.000000 0.555556
v 1.175385 0.000000 0.333333
v 1.175385 0.000000 0.111111
v 1.175385 0.000000 -0.111111
v 1.175385 0.000000 -0.333333
v 1.175385 0.000000 -0.555556
v 1.175385 0.000000 -0.777778
v 1.175385 0.000000 -0.533182
v 1.175385 0.000000 -0.360387
v 1.369483 0.000000 1.000000
v 1.369483 0.000000 -1.000000
v 1.369483 0.000000 0.777778
v 1.369483 0.000000 0.555556
v 1.369483 0.000000 0.333333
v 1.369483 0.000000 0.111111
v 1.369483 0.000000 -0.111111
v 1.369483 0.000000 -0.333333
v 1.369483 0.000000 -0.555556
v 1.369483 0.000000 -0.777778
v 1.369483 0.000000 -0.533182
v 1.369483 0.000000 -0.360387
vn 0.000000 1.000000 0.000000
vn 0.000000 0.251500 0.967900
vn -0.876200 0.222200 0.427600
vn -0.992100 0.125800 0.000000
vn 0.000000 0.299800 -0.954000
vn 0.974100 0.226200 0.000000
vn 0.753500 0.349900 -0.556700
usemtl None
s off
f 93//1 20//1 4//1 29//1
f 28//1 2//1 13//1 37//1
f 37//1 13//1 14//1 45//1
f 45//1 14//1 15//1 53//1
f 53//1 15//1 16//1 61//1
f 61//1 16//1 17//1 69//1
f 69//1 17//1 18//1 77//1
f 110//1 102//1 19//1 85//1
f 85//1 19//1 20//1 93//1
f 6//1 92//1 100//1 5//1
f 92//1 91//1 99//1 100//1
f 91//1 90//1 98//1 99//1
f 90//1 89//1 97//1 98//1
f 89//1 88//1 96//1 97//1
f 88//1 87//1 95//1 96//1
f 87//1 86//1 94//1 95//1
f 129//1 85//1 93//1 130//1
f 101//2 103//2 92//2 6//2
f 103//2 104//2 91//2 92//2
f 104//2 105//2 90//2 91//2
f 105//2 106//2 89//2 90//2
f 106//2 107//2 88//2 89//2
f 107//2 108//2 87//2 88//2
f 108//2 109//2 86//2 87//2
f 131//3 110//3 85//3 129//3
f 8//1 76//1 84//1 7//1
f 76//1 75//1 83//1 84//1
f 75//1 74//1 82//1 83//1
f 74//1 73//1 81//1 82//1
f 73//1 72//1 80//1 81//1
f 72//1 71//1 79//1 80//1
f 71//1 70//1 78//1 79//1
f 127//4 69//4 77//4 128//4
f 9//1 68//1 76//1 8//1
f 68//1 67//1 75//1 76//1
f 67//1 66//1 74//1 75//1
f 66//1 65//1 73//1 74//1
f 65//1 64//1 72//1 73//1
f 64//1 63//1 71//1 72//1
f 63//1 62//1 70//1 71//1
f 126//4 61//4 69//4 127//4
f 10//1 60//1 68//1 9//1
f 60//1 59//1 67//1 68//1
f 59//1 58//1 66//1 67//1
f 58//1 57//1 65//1 66//1
f 57//1 56//1 64//1 65//1
f 56//1 55//1 63//1 64//1
f 55//1 54//1 62//1 63//1
f 125//4 53//4 61//4 126//4
f 11//1 52//1 60//1 10//1
f 52//1 51//1 59//1 60//1
f 51//1 50//1 58//1 59//1
f 50//1 49//1 57//1 58//1
f 49//1 48//1 56//1 57//1
f 48//1 47//1 55//1 56//1
f 47//1 46//1 54//1 55//1
f 124//4 45//4 53//4 125//4
f 12//1 44//1 52//1 11//1
f 44//1 43//1 51//1 52//1
f 43//1 42//1 50//1 51//1
f 42//1 41//1 49//1 50//1
f 41//1 40//1 48//1 49//1
f 40//1 39//1 47//1 48//1
f 39//1 38//1 46//1 47//1
f 123//4 37//4 45//4 124//4
f 1//1 21//1 44//1 12//1
f 21//1 22//1 43//1 44//1
f 22//1 23//1 42//1 43//1
f 23//1 24//1 41//1 42//1
f 24//1 25//1 40//1 41//1
f 25//1 26//1 39//1 40//1
f 26//1 27//1 38//1 39//1
f 121//4 28//4 37//4 123//4
f 5//1 100//1 36//1 3//1
f 100//1 99//1 35//1 36//1
f 99//1 98//1 34//1 35//1
f 98//1 97//1 33//1 34//1
f 97//1 96//1 32//1 33//1
f 96//1 95//1 31//1 32//1
f 95//1 94//1 30//1 31//1
f 130//1 93//1 29//1 122//1
f 132//4 120//4 110//4 131//4
f 118//1 119//1 109//1 108//1
f 117//1 118//1 108//1 107//1
f 116//1 117//1 107//1 106//1
f 115//1 116//1 106//1 105//1
f 114//1 115//1 105//1 104//1
f 113//1 114//1 104//1 103//1
f 111//1 113//1 103//1 101//1
f 120//1 112//1 102//1 110//1
f 77//1 18//1 112//1 120//1
f 7//5 84//5 113//5 111//5
f 84//5 83//5 114//5 113//5
f 83//5 82//5 115//5 114//5
f 82//5 81//5 116//5 115//5
f 81//5 80//5 117//5 116//5
f 80//5 79//5 118//5 117//5
f 79//5 78//5 119//5 118//5
f 128//4 77//4 120//4 132//4
f 139//1 128//1 132//1 143//1
f 143//1 132//1 131//1 142//1
f 141//1 130//1 122//1 133//1
f 144//1 121//1 123//1 134//1
f 134//1 123//1 124//1 135//1
f 135//1 124//1 125//1 136//1
f 136//1 125//1 126//1 137//1
f 137//1 126//1 127//1 138//1
f 138//1 127//1 128//1 139//1
f 142//2 131//2 129//2 140//2
f 140//1 129//1 130//1 141//1
f 86//1 140//1 141//1 94//1
f 109//2 142//2 140//2 86//2
f 70//6 138//6 139//6 78//6
f 62//6 137//6 138//6 70//6
f 54//6 136//6 137//6 62//6
f 46//6 135//6 136//6 54//6
f 38//6 134//6 135//6 46//6
f 27//6 144//6 134//6 38//6
f 94//1 141//1 133//1 30//1
f 119//1 143//1 142//1 109//1
f 78//7 139//7 143//7 119//7
f 13//1 2//1 145//1 147//1
f 4//1 20//1 154//1 146//1
f 20//1 19//1 153//1 154//1
f 17//1 16//1 150//1 151//1
f 112//1 18//1 152//1 156//1
f 14//1 13//1 147//1 148//1
f 18//1 17//1 151//1 152//1
f 15//1 14//1 148//1 149//1
f 102//1 112//1 156//1 155//1
f 19//1 102//1 155//1 153//1
f 16//1 15//1 149//1 150//1
f 149//1 148//1 160//1 161//1
f 156//1 152//1 164//1 168//1
f 146//1 154//1 166//1 158//1
f 153//1 155//1 167//1 165//1
f 150//1 149//1 161//1 162//1
f 147//1 145//1 157//1 159//1
f 154//1 153//1 165//1 166//1
f 151//1 150//1 162//1 163//1
f 148//1 147//1 159//1 160//1
f 155//1 156//1 168//1 167//1
f 152//1 151//1 163//1 164//1
